<svg width="189" height="30" viewBox="0 0 189 30" fill="none" xmlns="http://www.w3.org/2000/svg">
<path fill-rule="evenodd" clip-rule="evenodd" d="M15.3125 5.6455C13.1988 3.87831 10.4771 2.81415 7.50689 2.8125L7.5 2.8125L5.62501 2.8125C4.07171 2.8125 2.81251 4.0717 2.81251 5.625L2.81251 24.375C2.81251 25.9273 4.07003 27.1858 5.62191 27.1875H7.5C10.4729 27.1875 13.1972 26.1231 15.3125 24.3545C10.4263 24.0329 6.5625 19.9677 6.5625 15C6.5625 10.0323 10.4263 5.9671 15.3125 5.6455ZM16.348 2.8862C22.4446 3.55701 27.1875 8.72462 27.1875 15C27.1875 21.2754 22.4446 26.443 16.348 27.1138C20.0776 24.385 22.5 19.9754 22.5 15C22.5 10.0246 20.0776 5.61501 16.348 2.8862ZM15 2.56302e-06L7.50765 2.89052e-06L7.5 0L5.62501 2.97281e-06L4.21875 0C1.8888 0 0 1.8888 0 4.21875V25.7812C0 28.1112 1.8888 30 4.21875 30H5.62501H7.5L15 30C23.2843 30 30 23.2843 30 15C30 6.71573 23.2843 2.2009e-06 15 2.56302e-06ZM15.9375 8.4375H17.6367C17.7338 8.4375 17.8125 8.5162 17.8125 8.61328V11.25H15.9375C13.8664 11.25 12.1875 12.9289 12.1875 15C12.1875 17.0711 13.8664 18.75 15.9375 18.75H17.8125V21.3867C17.8125 21.4838 17.7338 21.5625 17.6367 21.5625H15.9375C12.3131 21.5625 9.375 18.6244 9.375 15C9.375 11.3756 12.3131 8.4375 15.9375 8.4375ZM17.3437 14.0625H15.9375C15.4197 14.0625 15 14.4822 15 15C15 15.5178 15.4197 15.9375 15.9375 15.9375L17.3437 15.9375V14.0625ZM61.0768 10.1042H50.621V13.4894H60.1615V17.6206H50.621V21.637H61.0768V25.9116H46.1836V5.82959H61.0768V10.1042ZM90.7854 11.223C94.5573 11.223 96.3877 13.2599 96.3877 17.4771V25.9116H92.0612V18.682C92.0612 16.1288 91.2014 15.2968 89.1491 15.2968C86.8472 15.2968 85.6269 16.5017 85.6269 18.9116V25.9116H81.3281V5.82959H85.6269V14.8091H85.7101C86.3203 12.5427 88.123 11.223 90.7854 11.223ZM118.471 25.9116V5.82959H128.705C135.139 5.82959 138.772 9.7886 138.772 15.8706C138.772 22.0099 135.083 25.9116 128.705 25.9116H118.471ZM122.991 21.6083H128.594C132.782 21.6083 134.14 20.2025 134.14 15.8706C134.14 11.5386 132.782 10.1042 128.594 10.1042H122.991V21.6083ZM182.926 11.223C186.698 11.223 188.528 13.2599 188.528 17.4771V25.9116H184.202V18.682C184.202 16.1288 183.342 15.2968 181.29 15.2968C178.988 15.2968 177.768 16.5017 177.768 18.9116V25.9116H173.469V5.82959H177.768V14.8091H177.851C178.461 12.5427 180.264 11.223 182.926 11.223ZM164.131 26.1984C160.886 26.1984 157.613 24.6493 157.059 22.0386L161.08 21.0345C161.468 22.3829 162.467 22.9566 164.353 22.9566C165.934 22.9566 166.766 22.6124 166.766 21.7804C166.738 21.0058 165.989 20.6042 164.408 20.3747L161.801 20.0304C158.945 19.6861 157.336 18.0222 157.281 15.6124C157.225 12.7722 159.472 11.223 163.604 11.223C167.736 11.223 170.038 12.8009 170.759 15.4689L166.793 16.3583C166.544 14.9238 165.434 14.2353 163.77 14.2353C162.328 14.2353 161.579 14.637 161.579 15.4402C161.579 16.1001 162.245 16.6165 163.632 16.7599L166.682 17.0755C169.373 17.3624 171.037 18.9976 171.092 21.3788C171.148 24.5058 168.652 26.1984 164.131 26.1984ZM154.837 16.7025C154.837 13.0878 151.841 11.223 147.792 11.223C144.325 11.223 141.164 12.8583 140.997 16.1001L144.547 17.0181C144.63 15.4689 145.573 14.6943 147.737 14.6943C149.623 14.6943 150.51 15.0673 150.649 16.473L150.676 17.0181L149.29 17.2476C141.607 18.4525 140.082 19.4566 140.082 22.2681C140.082 24.6492 142.134 26.1984 145.296 26.1984C147.986 26.1984 149.761 25.0509 150.565 22.9279H150.649L151.148 25.9115H154.837V16.7025ZM150.676 19.3419C150.621 21.1779 148.901 23.1288 146.738 23.1288C145.157 23.1288 144.353 22.6697 144.353 21.8091C144.353 20.6329 146.378 20.1451 149.484 19.5427L150.676 19.3419ZM98.8848 18.7394C98.8848 23.5304 102.462 26.1984 107.177 26.1984C111.864 26.1984 115.47 23.5878 115.47 18.7394C115.47 13.9484 111.975 11.223 107.177 11.223C102.518 11.223 98.8848 13.9197 98.8848 18.7394ZM111.143 18.7394C111.143 21.264 109.784 22.1247 107.177 22.1247C104.626 22.1247 103.211 21.3214 103.211 18.7394C103.211 16.3583 104.293 15.2968 107.177 15.2968C110.173 15.2968 111.143 16.3583 111.143 18.7394ZM63.1076 18.7394C63.1076 23.4443 66.4634 26.1984 71.4833 26.1984C75.9207 26.1984 78.3336 24.2763 79.2488 20.432L75.0887 19.4566C74.6727 21.3214 73.8962 22.1247 71.4833 22.1247C68.5435 22.1247 67.4064 21.0919 67.4064 18.7394C67.4064 16.3583 68.5435 15.2968 71.4833 15.2968C73.6466 15.2968 74.7282 16.0714 75.0887 17.9648L79.2488 16.9894C78.3613 13.1739 75.9762 11.223 71.4833 11.223C66.4912 11.223 63.1076 13.9484 63.1076 18.7394Z" fill="white"/>
</svg>
