<svg width="30" height="30" viewBox="0 0 30 30" fill="currentColor" xmlns="http://www.w3.org/2000/svg">
<path fill-rule="evenodd" clip-rule="evenodd" d="M15 1.43608e-06C23.2843 1.07397e-06 30 6.71573 30 15C30 23.2843 23.2843 30 15 30H4.21875C1.8888 30 1.04437e-06 28.1112 9.4252e-07 25.7812L0 4.21875C-1.01845e-07 1.8888 1.8888 1.01845e-07 4.21875 0L15 1.43608e-06ZM7.50689 2.8125C10.4771 2.81415 13.1988 3.87831 15.3125 5.6455C10.4263 5.9671 6.5625 10.0323 6.5625 15C6.5625 19.9677 10.4262 24.0329 15.3125 24.3545C13.1972 26.1231 10.4729 27.1875 7.5 27.1875H5.62191C4.07003 27.1858 2.81251 25.9273 2.81251 24.375L2.81251 5.625C2.81251 4.0717 4.07171 2.8125 5.62501 2.8125L7.50689 2.8125ZM27.1875 15C27.1875 8.72462 22.4446 3.557 16.348 2.8862C20.0776 5.61501 22.5 10.0246 22.5 15C22.5 19.9754 20.0776 24.385 16.348 27.1138C22.4446 26.443 27.1875 21.2754 27.1875 15ZM17.6367 8.4375H15.9375C12.3131 8.4375 9.375 11.3756 9.375 15C9.375 18.6244 12.3131 21.5625 15.9375 21.5625H17.6367C17.7338 21.5625 17.8125 21.4838 17.8125 21.3867V18.75H15.9375C13.8664 18.75 12.1875 17.0711 12.1875 15C12.1875 12.9289 13.8664 11.25 15.9375 11.25H17.8125V8.61328C17.8125 8.5162 17.7338 8.4375 17.6367 8.4375ZM15.9375 14.0625H17.3437V15.9375L15.9375 15.9375C15.4197 15.9375 15 15.5178 15 15C15 14.4822 15.4197 14.0625 15.9375 14.0625Z" fill="currentColor"/>
</svg>
