<svg width="189" height="35" viewBox="0 0 189 35" fill="currentColor" xmlns="http://www.w3.org/2000/svg">
<path d="M182.926 12.2229C186.698 12.2229 188.528 14.2598 188.528 18.477V26.9114H184.202V19.6819C184.202 17.1286 183.342 16.2967 181.29 16.2967C178.988 16.2967 177.768 17.5016 177.768 19.9114V26.9114H173.469V6.82947H177.768V15.809H177.851C178.461 13.5426 180.264 12.2229 182.926 12.2229Z" fill="currentColor"/>
<path d="M164.131 27.1983C160.886 27.1983 157.613 25.6491 157.059 23.0385L161.08 22.0344C161.468 23.3827 162.467 23.9565 164.353 23.9565C165.933 23.9565 166.765 23.6122 166.765 22.7803C166.738 22.0057 165.989 21.604 164.408 21.3745L161.801 21.0303C158.945 20.686 157.336 19.0221 157.28 16.6122C157.225 13.7721 159.471 12.2229 163.604 12.2229C167.736 12.2229 170.038 13.8008 170.759 16.4688L166.793 17.3581C166.544 15.9237 165.434 15.2352 163.77 15.2352C162.328 15.2352 161.579 15.6368 161.579 16.4401C161.579 17.0999 162.245 17.6163 163.632 17.7598L166.682 18.0754C169.372 18.3622 171.037 19.9975 171.092 22.3786C171.147 25.5057 168.651 27.1983 164.131 27.1983Z" fill="currentColor"/>
<path d="M147.792 12.2229C151.841 12.2229 154.837 14.0877 154.837 17.7024V26.9114H151.148L150.649 23.9278H150.565C149.761 26.0508 147.986 27.1983 145.296 27.1983C142.134 27.1983 140.082 25.6491 140.082 23.268C140.082 20.4565 141.607 19.4524 149.29 18.2475L150.676 18.018L150.649 17.4729C150.51 16.0672 149.623 15.6942 147.737 15.6942C145.573 15.6942 144.63 16.4688 144.547 18.018L140.997 17.0999C141.164 13.8581 144.325 12.2229 147.792 12.2229ZM146.738 24.1286C148.901 24.1286 150.621 22.1778 150.676 20.3418L149.484 20.5426C146.378 21.145 144.353 21.6327 144.353 22.809C144.353 23.6696 145.157 24.1286 146.738 24.1286Z" fill="currentColor"/>
<path d="M118.471 26.9114V6.82947H128.705C135.139 6.82947 138.772 10.7885 138.772 16.8705C138.772 23.0098 135.083 26.9114 128.705 26.9114H118.471ZM122.991 22.6082H128.594C132.781 22.6082 134.14 21.2024 134.14 16.8705C134.14 12.5385 132.781 11.1041 128.594 11.1041H122.991V22.6082Z" fill="currentColor"/>
<path d="M107.177 27.1983C102.462 27.1983 98.8848 24.5303 98.8848 19.7393C98.8848 14.9196 102.518 12.2229 107.177 12.2229C111.975 12.2229 115.47 14.9483 115.47 19.7393C115.47 24.5877 111.864 27.1983 107.177 27.1983ZM107.177 23.1245C109.784 23.1245 111.143 22.2639 111.143 19.7393C111.143 17.3581 110.173 16.2967 107.177 16.2967C104.293 16.2967 103.211 17.3581 103.211 19.7393C103.211 22.3213 104.626 23.1245 107.177 23.1245Z" fill="currentColor"/>
<path d="M90.7854 12.2229C94.5573 12.2229 96.3877 14.2598 96.3877 18.477V26.9114H92.0612V19.6819C92.0612 17.1286 91.2014 16.2967 89.1491 16.2967C86.8472 16.2967 85.6269 17.5016 85.6269 19.9114V26.9114H81.3281V6.82947H85.6269V15.809H85.7101C86.3202 13.5426 88.123 12.2229 90.7854 12.2229Z" fill="currentColor"/>
<path d="M71.4831 27.1983C66.4632 27.1983 63.1074 24.4442 63.1074 19.7393C63.1074 14.9483 66.491 12.2229 71.4831 12.2229C75.976 12.2229 78.3611 14.1737 79.2486 17.9893L75.0885 18.9647C74.728 17.0713 73.6463 16.2967 71.4831 16.2967C68.5433 16.2967 67.4062 17.3581 67.4062 19.7393C67.4062 22.0918 68.5433 23.1245 71.4831 23.1245C73.896 23.1245 74.6725 22.3213 75.0885 20.4565L79.2486 21.4319C78.3334 25.2762 75.9205 27.1983 71.4831 27.1983Z" fill="currentColor"/>
<path d="M61.0768 11.1041H50.621V14.4893H60.1615V18.6205H50.621V22.6368H61.0768V26.9114H46.1836V6.82947H61.0768V11.1041Z" fill="currentColor"/>
<path fill-rule="evenodd" clip-rule="evenodd" d="M7.50689 3.81251C10.4771 3.81415 13.1988 4.87832 15.3125 6.64551C10.4262 6.9671 6.56249 11.0323 6.56249 16C6.56249 20.9677 10.4262 25.0329 15.3125 25.3545C13.1972 27.1231 10.4729 28.1875 7.5 28.1875L5.62191 28.1875C4.07003 28.1858 2.81251 26.9273 2.81251 25.375L2.8125 6.625C2.8125 5.0717 4.0717 3.81251 5.625 3.81251L7.49999 3.8125L7.50689 3.81251ZM27.1875 16C27.1875 9.72463 22.4446 4.55701 16.348 3.88621C20.0776 6.61502 22.5 11.0246 22.5 16C22.5 20.9754 20.0776 25.385 16.348 28.1138C22.4446 27.443 27.1875 22.2754 27.1875 16ZM7.50764 1.00001L15 1.00001C23.2843 1.00001 30 7.71573 30 16C30 24.2843 23.2843 31 15 31L7.5 31L5.625 31L4.21874 31C1.88879 31 -3.89726e-06 29.1112 -3.9991e-06 26.7813L-4.94163e-06 5.21876C-5.04348e-06 2.8888 1.88879 1.00001 4.21874 1L5.625 1.00001L7.49999 1L7.50764 1.00001ZM17.6367 9.4375L15.9375 9.4375C12.3131 9.4375 9.37499 12.3756 9.37499 16C9.37499 19.6244 12.3131 22.5625 15.9375 22.5625L17.6367 22.5625C17.7338 22.5625 17.8125 22.4838 17.8125 22.3867L17.8125 19.75L15.9375 19.75C13.8664 19.75 12.1875 18.0711 12.1875 16C12.1875 13.9289 13.8664 12.25 15.9375 12.25L17.8125 12.25L17.8125 9.61328C17.8125 9.5162 17.7338 9.4375 17.6367 9.4375ZM15.9375 15.0625L17.3437 15.0625L17.3437 16.9375L15.9375 16.9375C15.4197 16.9375 15 16.5178 15 16C15 15.4822 15.4197 15.0625 15.9375 15.0625Z" fill="currentColor"/>
</svg>
