<svg width="20" height="20" viewBox="0 0 20 20" fill="none" xmlns="http://www.w3.org/2000/svg">
<path d="M15 1.66667V3.33334M5 1.66667V3.33334" stroke="currentColor" stroke-width="1.5" stroke-linecap="round" stroke-linejoin="round"/>
<path d="M2.08337 10.2027C2.08337 6.57162 2.08337 4.75607 3.12681 3.62803C4.17024 2.5 5.84962 2.5 9.20837 2.5H10.7917C14.1505 2.5 15.8299 2.5 16.8733 3.62803C17.9167 4.75607 17.9167 6.57162 17.9167 10.2027V10.6307C17.9167 14.2618 17.9167 16.0773 16.8733 17.2053C15.8299 18.3333 14.1505 18.3333 10.7917 18.3333H9.20837C5.84962 18.3333 4.17024 18.3333 3.12681 17.2053C2.08337 16.0773 2.08337 14.2618 2.08337 10.6307V10.2027Z" stroke="currentColor" stroke-width="1.5" stroke-linecap="round" stroke-linejoin="round"/>
<path d="M2.5 6.66666H17.5" stroke="currentColor" stroke-width="1.5" stroke-linecap="round" stroke-linejoin="round"/>
<path d="M13.9935 12.1651C13.9935 11.0172 14.0498 10.7077 13.8246 10.3384C13.5995 9.96905 13.0366 10.001 12.4737 10.001C11.9108 10.001 11.5015 9.96904 11.2303 10.2685C10.8977 10.6179 11.0409 11.2667 11 12.1651C11.0921 13.363 10.8414 14.3112 11.2252 14.7105C11.5015 15.0399 11.9919 14.99 12.5761 15C13.1559 14.9931 13.5074 15.02 13.7939 14.7005C14.1112 14.421 13.9577 13.313 13.9935 12.1651Z" stroke="currentColor" stroke-width="1.3" stroke-linecap="round"/>
<path d="M6 10.9392C6.11297 10.0707 6.83189 9.97088 7.55082 10.0058C8.11568 9.98086 8.98862 10.0208 8.99889 11.2687C8.98862 12.5664 7.93082 12.4759 7.93082 12.4966C7.93082 12.5172 9.03997 12.4666 8.99889 13.7644C8.98862 14.9124 8.21839 15.0322 7.49946 14.9923C6.78054 15.0422 6.11297 14.8625 6 14.0639" stroke="currentColor" stroke-width="1.3" stroke-linecap="round"/>
</svg>