<svg width="16" height="16" viewBox="0 0 16 16" fill="none" xmlns="http://www.w3.org/2000/svg">
<path d="M9.70453 8.8122C9.00967 9.50706 7.88307 9.50706 7.18813 8.8122C6.49328 8.11726 6.49328 6.99067 7.18813 6.29576L8.76093 4.723C9.42413 4.05974 10.4807 4.02955 11.1798 4.63244M10.9628 2.52117C11.6577 1.82628 12.7843 1.82628 13.4792 2.52117C14.1741 3.21605 14.1741 4.34268 13.4792 5.03757L11.9064 6.61033C11.2432 7.2736 10.1866 7.3038 9.48753 6.70087" stroke="currentColor" stroke-width="1.5" stroke-linecap="round"/>
<path d="M14 8.66667C14 11.1808 14 12.4379 13.2189 13.2189C12.4379 14 11.1808 14 8.66667 14H7.33333C4.81917 14 3.5621 14 2.78105 13.2189C2 12.4379 2 11.1808 2 8.66667V7.33333C2 4.81917 2 3.5621 2.78105 2.78105C3.5621 2 4.81917 2 7.33333 2" stroke="currentColor" stroke-width="1.5" stroke-linecap="round"/>
</svg>
