<svg width="20" height="20" viewBox="0 0 20 20" fill="none" xmlns="http://www.w3.org/2000/svg">
<path d="M17.5 9.58333C17.5 5.85138 17.5 3.98541 16.3406 2.82603C15.1812 1.66667 13.3152 1.66667 9.58329 1.66667C5.85134 1.66667 3.98537 1.66667 2.82599 2.82603C1.66663 3.98541 1.66663 5.85138 1.66663 9.58333C1.66663 13.3153 1.66663 15.1813 2.82599 16.3407C3.94139 17.456 5.7108 17.4983 9.16663 17.4999" stroke="currentColor" stroke-width="1.5" stroke-linecap="round"/>
<path d="M1.66663 5.83333H17.5" stroke="currentColor" stroke-width="1.5" stroke-linejoin="round"/>
<path d="M8.33333 13.3333H9.58333M5 13.3333H5.83333M8.33333 10H13.3333M5 10H5.83333" stroke="currentColor" stroke-width="1.5" stroke-linecap="round" stroke-linejoin="round"/>
<path d="M17.7194 12.3931C16.9685 11.5543 16.5179 11.6042 16.0173 11.754C15.6669 11.8039 14.4654 13.2018 13.9648 13.6471C13.1428 14.4565 12.3171 15.2899 12.2627 15.3987C12.1071 15.6508 11.9623 16.0977 11.8922 16.5969C11.7621 17.3458 11.5034 18.1512 11.8121 18.2611C11.9623 18.4608 12.7132 18.1946 13.4641 18.0848C13.9648 17.9948 14.3152 17.895 14.5656 17.7453C14.916 17.5355 15.5667 16.7966 16.6881 15.6983C17.3914 14.9601 18.0698 14.45 18.2701 13.9508C18.4703 13.2018 18.17 12.8024 17.7194 12.3931Z" stroke="currentColor" stroke-width="1.5"/>
</svg>