<svg width="20" height="20" viewBox="0 0 20 20" fill="none" xmlns="http://www.w3.org/2000/svg">
<path d="M18.3353 17.0835V12.9168C18.3353 12.4566 17.9622 12.0835 17.502 12.0835H13.3353C12.875 12.0835 12.502 12.4566 12.502 12.9168V17.0835C12.502 17.5437 12.875 17.9168 13.3353 17.9168H17.502C17.9622 17.9168 18.3353 17.5437 18.3353 17.0835Z" stroke="currentColor" stroke-width="1.5" stroke-linejoin="round"/>
<path d="M7.91829 6.6665V2.49984C7.91829 2.0396 7.54519 1.6665 7.08496 1.6665H2.91829C2.45805 1.6665 2.08496 2.0396 2.08496 2.49984V6.6665C2.08496 7.12674 2.45805 7.49984 2.91829 7.49984H7.08496C7.54519 7.49984 7.91829 7.12674 7.91829 6.6665Z" stroke="currentColor" stroke-width="1.5" stroke-linejoin="round"/>
<path d="M4.41062 17.7439C4.73606 18.0694 5.26369 18.0694 5.58913 17.7439L7.74395 15.5891C8.06939 15.2637 8.06939 14.736 7.74395 14.4106L5.58913 12.2558C5.26369 11.9304 4.73606 11.9304 4.41062 12.2558L2.2558 14.4106C1.93036 14.736 1.93036 15.2637 2.2558 15.5891L4.41062 17.7439Z" stroke="currentColor" stroke-width="1.5" stroke-linejoin="round"/>
<path d="M5.00195 7.5V11.6667M8.3353 15H12.502" stroke="currentColor" stroke-width="1.5" stroke-linejoin="round"/>
</svg>
