<svg width="20" height="20" viewBox="0 0 20 20" fill="none" xmlns="http://www.w3.org/2000/svg">
<path d="M10.416 2.5H9.58268C5.85073 2.5 3.98476 2.5 2.82538 3.65937C1.66602 4.81874 1.66602 6.68472 1.66602 10.4167C1.66602 14.1486 1.66602 16.0146 2.82538 17.174C3.98476 18.3333 5.85073 18.3333 9.58268 18.3333C13.3146 18.3333 15.1806 18.3333 16.34 17.174C17.4993 16.0146 17.4993 14.1486 17.4993 10.4167V9.58333" stroke="currentColor" stroke-width="1.5" stroke-linecap="round"/>
<path d="M18.3333 4.58332C18.3333 6.19416 17.0275 7.49999 15.4167 7.49999C13.8058 7.49999 12.5 6.19416 12.5 4.58332C12.5 2.97249 13.8058 1.66666 15.4167 1.66666C17.0275 1.66666 18.3333 2.97249 18.3333 4.58332Z" stroke="currentColor" stroke-width="1.5"/>
<path d="M5.83398 9.16663H9.16732" stroke="currentColor" stroke-width="1.5" stroke-linecap="round" stroke-linejoin="round"/>
<path d="M5.83398 13.3334H12.5007" stroke="currentColor" stroke-width="1.5" stroke-linecap="round" stroke-linejoin="round"/>
</svg>