<svg width="21" height="21" viewBox="0 0 21 21" fill="none" xmlns="http://www.w3.org/2000/svg">
<path d="M10.416 3.5H9.58268C5.85073 3.5 3.98476 3.5 2.82538 4.65937C1.66602 5.81874 1.66602 7.68472 1.66602 11.4167C1.66602 15.1486 1.66602 17.0146 2.82538 18.174C3.98476 19.3333 5.85073 19.3333 9.58268 19.3333C13.3146 19.3333 15.1806 19.3333 16.34 18.174C17.4993 17.0146 17.4993 15.1486 17.4993 11.4167V10.5833" stroke="currentColor" stroke-width="1.5" stroke-linecap="round"/>
<path d="M17.1047 1.50551L17.7206 2.74757C17.8046 2.92038 18.0285 3.08628 18.2175 3.11805L19.3339 3.30503C20.0478 3.42499 20.2158 3.94719 19.7013 4.46239L18.8334 5.33748C18.6865 5.4857 18.606 5.77148 18.6515 5.97614L18.8999 7.05939C19.0959 7.9168 18.6445 8.24851 17.8921 7.80034L16.8457 7.17585C16.6567 7.06289 16.3453 7.06289 16.1528 7.17585L15.1064 7.80034C14.3575 8.24851 13.9026 7.9133 14.0985 7.05939L14.347 5.97614C14.3925 5.77148 14.312 5.4857 14.165 5.33748L13.2971 4.46239C12.7862 3.94719 12.9507 3.42499 13.6646 3.30503L14.7809 3.11805C14.9664 3.08628 15.1904 2.92038 15.2744 2.74757L15.8903 1.50551C16.2263 0.831497 16.7722 0.831497 17.1047 1.50551Z" stroke="currentColor" stroke-width="1.5" stroke-linecap="round" stroke-linejoin="round"/>
<path d="M5.83398 10.1666H9.16732" stroke="currentColor" stroke-width="1.5" stroke-linecap="round" stroke-linejoin="round"/>
<path d="M5.83398 14.3334H12.5007" stroke="currentColor" stroke-width="1.5" stroke-linecap="round" stroke-linejoin="round"/>
</svg>