<svg width="23" height="20" viewBox="0 0 23 20" fill="none" xmlns="http://www.w3.org/2000/svg">
<path d="M10.416 2.5H9.58268C5.85073 2.5 3.98476 2.5 2.82538 3.65937C1.66602 4.81874 1.66602 6.68472 1.66602 10.4167C1.66602 14.1486 1.66602 16.0146 2.82538 17.174C3.98476 18.3333 5.85073 18.3333 9.58268 18.3333C13.3146 18.3333 15.1806 18.3333 16.34 17.174C17.4993 16.0146 17.4993 14.1486 17.4993 10.4167V9.58333" stroke="currentColor" stroke-width="1.5" stroke-linecap="round"/>
<path d="M17.166 3.91663H17.1735" stroke="currentColor" stroke-width="2" stroke-linecap="round" stroke-linejoin="round"/>
<path d="M21.1433 3.51875C21.27 3.69642 21.3333 3.78517 21.3333 3.91667C21.3333 4.04817 21.27 4.13692 21.1433 4.31458C20.5742 5.11275 19.1205 6.83333 17.1667 6.83333C15.2128 6.83333 13.7592 5.11275 13.19 4.31458C13.0633 4.13692 13 4.04817 13 3.91667C13 3.78517 13.0633 3.69642 13.19 3.51875C13.7592 2.72058 15.2128 1 17.1667 1C19.1205 1 20.5742 2.72058 21.1433 3.51875Z" stroke="currentColor" stroke-width="1.5"/>
<path d="M5.83398 9.16663H9.16732" stroke="currentColor" stroke-width="1.5" stroke-linecap="round" stroke-linejoin="round"/>
<path d="M5.83398 13.3334H12.5007" stroke="currentColor" stroke-width="1.5" stroke-linecap="round" stroke-linejoin="round"/>
</svg>