<svg width="20" height="20" viewBox="0 0 20 20" fill="none" xmlns="http://www.w3.org/2000/svg">
<path d="M9.99935 18.3334C14.6017 18.3334 18.3327 14.6024 18.3327 10C18.3327 5.39765 14.6017 1.66669 9.99935 1.66669C5.39698 1.66669 1.66602 5.39765 1.66602 10C1.66602 14.6024 5.39698 18.3334 9.99935 18.3334Z" stroke="currentColor" stroke-width="1.5"/>
<path d="M6.25 14.1667C8.19308 12.1315 11.786 12.0357 13.75 14.1667M12.0792 7.91666C12.0792 9.06724 11.1452 9.99999 9.99292 9.99999C8.84075 9.99999 7.90664 9.06724 7.90664 7.91666C7.90664 6.76607 8.84075 5.83333 9.99292 5.83333C11.1452 5.83333 12.0792 6.76607 12.0792 7.91666Z" stroke="currentColor" stroke-width="1.5" stroke-linecap="round"/>
</svg>