<svg width="19" height="19" viewBox="0 0 19 19" fill="none" xmlns="http://www.w3.org/2000/svg">
<path d="M7.62792 14.6832C7.62792 14.6832 6.5 14.6832 5.375 13.1838M11.0441 17V13.7569C11.0441 13.4844 10.963 13.2475 10.8322 13.0334C10.7425 12.8866 10.8039 12.6783 10.966 12.6322C12.3085 12.2511 13.25 11.6383 13.25 9.60545C13.25 9.07693 13.0823 8.58005 12.7875 8.1476C12.6409 7.93238 12.6446 7.9523 12.7059 7.69789C12.8137 7.2505 12.8223 6.77919 12.7019 6.33954C12.6623 6.19501 12.5774 6.11072 12.4237 6.127C12.2245 6.14811 11.8794 6.24247 11.3675 6.57269C11.1664 6.70244 11.0658 6.76732 10.9773 6.78183C10.8887 6.79634 10.7704 6.76594 10.5335 6.70515C10.2097 6.62201 9.87605 6.57739 9.5 6.57739C9.12395 6.57739 8.79027 6.62201 8.4665 6.70515C8.22965 6.76594 8.1113 6.79634 8.02273 6.78183C7.93415 6.76732 7.8336 6.70244 7.63249 6.57269C7.12065 6.24247 6.77555 6.14811 6.57624 6.127C6.4226 6.11072 6.33771 6.19501 6.29811 6.33954C6.17763 6.77919 6.18625 7.25052 6.29407 7.6979C6.35539 7.95232 6.3591 7.93238 6.2124 8.1476C5.91767 8.58005 5.75 9.07693 5.75 9.60545C5.75 11.6383 6.69144 12.2511 8.03397 12.6322C8.19612 12.6783 8.25755 12.8866 8.16785 13.0334C8.03705 13.2475 7.95589 13.4844 7.95589 13.7569V17" stroke="currentColor" stroke-width="1.5"/>
<path d="M9.5 17C13.6421 17 17 13.6421 17 9.5C17 5.35786 13.6421 2 9.5 2C5.35786 2 2 5.35786 2 9.5C2 13.6421 5.35786 17 9.5 17Z" stroke="currentColor" stroke-width="1.5" stroke-linejoin="round"/>
</svg>
