<svg width="20" height="20" viewBox="0 0 20 20" fill="none" xmlns="http://www.w3.org/2000/svg">
<path d="M9.16602 4.16663H14.9993" stroke="currentColor" stroke-width="1.5" stroke-linecap="round" stroke-linejoin="round"/>
<path d="M8.33398 8.33337L12.084 12.0834" stroke="currentColor" stroke-width="1.5" stroke-linecap="round" stroke-linejoin="round"/>
<path d="M4.16602 9.16663V15" stroke="currentColor" stroke-width="1.5" stroke-linecap="round" stroke-linejoin="round"/>
<path d="M5.36972 9.07403C7.41521 9.07403 9.07342 7.41582 9.07342 5.37033C9.07342 3.32483 7.41521 1.66663 5.36972 1.66663C3.32422 1.66663 1.66602 3.32483 1.66602 5.37033C1.66602 7.41582 3.32422 9.07403 5.36972 9.07403Z" stroke="currentColor" stroke-width="1.5"/>
<path d="M4.16667 18.3333C5.08714 18.3333 5.83333 17.5871 5.83333 16.6667C5.83333 15.7462 5.08714 15 4.16667 15C3.24619 15 2.5 15.7462 2.5 16.6667C2.5 17.5871 3.24619 18.3333 4.16667 18.3333Z" stroke="currentColor" stroke-width="1.5"/>
<path d="M13.3327 15C14.2532 15 14.9993 14.2538 14.9993 13.3333C14.9993 12.4128 14.2532 11.6666 13.3327 11.6666C12.4122 11.6666 11.666 12.4128 11.666 13.3333C11.666 14.2538 12.4122 15 13.3327 15Z" stroke="currentColor" stroke-width="1.5"/>
<path d="M16.6667 5.83333C17.5871 5.83333 18.3333 5.08714 18.3333 4.16667C18.3333 3.24619 17.5871 2.5 16.6667 2.5C15.7462 2.5 15 3.24619 15 4.16667C15 5.08714 15.7462 5.83333 16.6667 5.83333Z" stroke="currentColor" stroke-width="1.5"/>
</svg>