<svg width="20" height="20" viewBox="0 0 20 20" fill="none" xmlns="http://www.w3.org/2000/svg">
<path d="M17.4974 10.4193C17.4974 10.4193 17.4993 10.0281 17.4993 9.58571C17.4993 5.85263 17.4993 3.98608 16.34 2.82635C15.1806 1.66663 13.3146 1.66663 9.58268 1.66663C5.85073 1.66663 3.98476 1.66663 2.82538 2.82635C1.66602 3.98608 1.66602 5.85263 1.66602 9.58571C1.66602 13.3189 1.66602 15.1854 2.82538 16.3451C3.79756 17.3176 5.26657 17.4746 7.91602 17.5" stroke="currentColor" stroke-width="1.5" stroke-linecap="round"/>
<path d="M1.66602 5.83337H17.4993" stroke="currentColor" stroke-width="1.5" stroke-linejoin="round"/>
<path d="M5 13.3333H5.83333M8.33333 10H12.5M5 10H5.83333" stroke="currentColor" stroke-width="1.5" stroke-linecap="round" stroke-linejoin="round"/>
<path d="M14.166 15.4166H14.1735" stroke="currentColor" stroke-width="2" stroke-linecap="round" stroke-linejoin="round"/>
<path d="M18.1433 15.0187C18.27 15.1964 18.3333 15.2852 18.3333 15.4167C18.3333 15.5482 18.27 15.6369 18.1433 15.8146C17.5742 16.6128 16.1205 18.3333 14.1667 18.3333C12.2128 18.3333 10.7592 16.6128 10.19 15.8146C10.0633 15.6369 10 15.5482 10 15.4167C10 15.2852 10.0633 15.1964 10.19 15.0187C10.7592 14.2206 12.2128 12.5 14.1667 12.5C16.1205 12.5 17.5742 14.2206 18.1433 15.0187Z" stroke="currentColor" stroke-width="1.5"/>
</svg>