<svg width="1320" height="122" viewBox="0 0 1320 122" fill="none" xmlns="http://www.w3.org/2000/svg">
<path d="M1318.5 141.011V217.725H1281.38V152.184C1281.38 140.253 1279.39 131.925 1274.63 126.609C1269.83 121.244 1262.54 119.292 1252.87 119.292C1241.95 119.292 1233.34 122.153 1227.47 128.12C1221.6 134.083 1218.71 142.903 1218.71 154.313V217.725H1181.85V34.5H1218.71V116.269V117.769H1220.21H1220.98H1222.13L1222.43 116.659C1225.18 106.451 1230.59 98.4464 1238.25 92.982C1245.92 87.5112 1255.95 84.5148 1268.05 84.5148C1285.27 84.5148 1297.79 89.1597 1306.02 98.3488C1314.29 107.571 1318.5 121.639 1318.5 141.011Z" stroke="#FAFF00" stroke-width="3"/>
<path d="M1119.69 180.917V180.89L1119.69 180.863C1119.54 176.665 1117.37 173.511 1113.41 171.207C1109.55 168.962 1103.91 167.467 1096.54 166.397L1096.53 166.395L1096.52 166.394L1072.35 163.202L1072.34 163.201L1072.33 163.2C1059.33 161.633 1049.32 157.083 1042.51 150.322C1035.71 143.576 1031.98 134.517 1031.73 123.687C1031.48 110.984 1036.35 101.3 1045.84 94.7237C1055.42 88.0859 1069.86 84.5156 1088.87 84.5156C1107.85 84.5156 1122.47 88.1421 1133.12 94.7015C1143.29 100.964 1149.94 109.958 1153.34 121.273L1119.61 128.837C1118.19 122.586 1114.96 117.811 1110.19 114.564C1105.07 111.082 1098.31 109.449 1090.41 109.449C1083.63 109.449 1078.25 110.385 1074.52 112.427C1072.63 113.459 1071.13 114.79 1070.11 116.448C1069.09 118.11 1068.59 120.019 1068.59 122.123C1068.59 125.772 1070.46 128.928 1073.95 131.281C1077.38 133.6 1082.41 135.174 1088.97 135.853L1117.26 138.779C1117.26 138.779 1117.26 138.779 1117.26 138.779C1129.47 140.081 1139.22 144.428 1145.97 151.03C1152.71 157.617 1156.56 166.544 1156.81 177.221C1157.06 191.25 1151.61 201.934 1141.09 209.178C1130.48 216.484 1114.57 220.387 1093.75 220.387C1078.93 220.387 1064.07 216.844 1052.33 210.364C1041.07 204.147 1032.79 195.306 1029.97 184.408L1064.45 175.799C1066.41 181.652 1069.72 186 1074.67 188.896C1079.95 191.981 1086.94 193.324 1095.81 193.324C1103.2 193.324 1109.06 192.529 1113.13 190.622C1115.19 189.658 1116.85 188.381 1117.99 186.726C1119.13 185.06 1119.69 183.109 1119.69 180.917Z" stroke="#FAFF00" stroke-width="3"/>
<path d="M918.808 119.393C913.998 123 911.49 128.232 910.798 134.855L880.81 127.1C881.896 113.217 889.202 102.727 900.083 95.6107C911.321 88.2601 926.382 84.5156 942.244 84.5156C960.813 84.5156 976.799 88.7949 988.101 97.0625C999.347 105.289 1006.07 117.54 1006.07 133.829V217.726H974.633L970.213 191.311L970.003 190.058H968.734H967.962H966.926L966.559 191.027C962.933 200.598 957.15 207.905 949.291 212.834C941.418 217.772 931.36 220.387 919.097 220.387C904.664 220.387 892.923 216.849 884.83 210.746C876.775 204.672 872.246 196 872.246 185.44C872.246 179.045 873.116 173.844 875.402 169.427C877.676 165.031 881.429 161.267 887.458 157.883C899.627 151.052 920.703 145.958 956.364 140.365L956.377 140.363L969.236 138.235L970.557 138.016L970.489 136.679L970.232 131.624L970.23 131.588L970.226 131.553C969.55 124.692 966.987 120.057 962.047 117.259C957.275 114.557 950.496 113.706 941.729 113.706C931.565 113.706 923.977 115.517 918.808 119.393ZM970.49 158.349L970.545 156.521L968.742 156.825L957.683 158.687L957.665 158.69L957.646 158.694C943.273 161.481 931.242 164.031 922.802 167.279C918.581 168.904 915.13 170.749 912.718 172.982C910.264 175.252 908.853 177.958 908.853 181.183C908.853 185.756 911.046 189.297 915.184 191.605C919.209 193.85 925.041 194.921 932.471 194.921C942.964 194.921 952.335 190.19 959.129 183.3C965.911 176.422 970.22 167.296 970.49 158.349Z" stroke="#FAFF00" stroke-width="3"/>
<path d="M710.759 179.32V180.82H712.259H764.211C783.711 180.82 797.118 177.567 805.571 168.823C814.009 160.095 817.147 146.264 817.147 126.113C817.147 105.961 814.008 92.0672 805.575 83.2735C797.124 74.4613 783.717 71.1394 764.211 71.1394H712.259H710.759V72.6394V179.32ZM671.838 217.725V34.5H765.239C794.76 34.5 817.68 43.5747 833.221 59.4556C848.768 75.342 857.097 98.2097 857.097 126.113C857.097 154.279 848.641 177.145 833.033 192.965C817.428 208.782 794.506 217.725 765.239 217.725H671.838Z" stroke="#FAFF00" stroke-width="3"/>
<path d="M565.611 220.387C544.021 220.387 525.169 214.278 511.74 202.821C498.34 191.389 490.213 174.527 490.213 152.717C490.213 130.779 498.466 113.78 511.935 102.245C525.432 90.6868 544.285 84.5156 565.611 84.5156C587.584 84.5156 606.431 90.7555 619.761 102.338C633.066 113.898 641.009 130.895 641.009 152.717C641.009 174.793 632.818 191.653 619.39 203.017C605.931 214.408 587.079 220.387 565.611 220.387ZM565.611 185.609C577.802 185.609 587.423 183.61 594.001 178.365C600.658 173.057 603.888 164.686 603.888 152.717C603.888 141.52 601.614 133.011 595.427 127.366C589.28 121.758 579.607 119.293 565.611 119.293C552.113 119.293 542.459 121.765 536.193 127.355C529.884 132.986 527.334 141.481 527.334 152.717C527.334 164.959 530.698 173.336 537.428 178.576C544.07 183.746 553.688 185.609 565.611 185.609Z" stroke="#FAFF00" stroke-width="3"/>
<path d="M464.056 141.011V217.725H426.935V152.184C426.935 140.253 424.942 131.925 420.188 126.609C415.389 121.244 408.099 119.292 398.43 119.292C387.509 119.292 378.896 122.153 373.025 128.12C367.158 134.083 364.268 142.903 364.268 154.313V217.725H327.404V34.5H364.268V116.269V117.769H365.768H366.54H367.689L367.988 116.659C370.736 106.451 376.145 98.4464 383.806 92.982C391.476 87.5112 401.507 84.5148 413.604 84.5148C430.83 84.5148 443.342 89.1597 451.58 98.3488C459.847 107.571 464.056 121.639 464.056 141.011Z" stroke="#FAFF00" stroke-width="3"/>
<path d="M234.609 220.387C211.597 220.387 192.562 214.075 179.303 202.532C166.069 191.011 158.439 174.151 158.439 152.717C158.439 130.88 166.136 113.889 179.4 102.337C192.689 90.762 211.723 84.5156 234.609 84.5156C255.234 84.5156 270.822 88.9931 282.245 97.6778C293.338 106.111 300.68 118.647 304.811 135.373L269.203 143.722C267.392 135.49 263.983 129.41 258.483 125.37C252.683 121.11 244.788 119.293 234.609 119.293C220.858 119.293 210.957 121.763 204.503 127.339C197.992 132.964 195.303 141.462 195.303 152.717C195.303 163.845 197.995 172.215 204.513 177.738C210.968 183.208 220.865 185.609 234.609 185.609C245.919 185.609 253.727 183.736 259.202 179.399C264.376 175.3 267.219 169.197 269.164 161.171L304.803 169.528C300.549 186.378 293.086 198.917 281.96 207.321C270.503 215.976 254.977 220.387 234.609 220.387Z" stroke="#FAFF00" stroke-width="3"/>
<path d="M41.1496 181.086H136.608V217.725H1.5V34.5H136.608V71.1394H41.1496H39.6496V72.6394V104.032V105.532H41.1496H128.121V140.841H41.1496H39.6496V142.341V179.586V181.086H41.1496Z" stroke="#FAFF00" stroke-width="3"/>
<path d="M1269.32 29.3638C1269.32 26.413 1270.04 23.7231 1271.48 21.2942C1272.92 18.8652 1274.86 16.931 1277.29 15.4916C1279.71 14.0522 1282.4 13.3325 1285.36 13.3325C1287.62 13.3325 1289.71 13.7733 1291.62 14.655C1293.52 15.5366 1295.14 16.7511 1296.47 18.2984C1297.81 19.8458 1298.75 21.618 1299.31 23.6152H1295.85C1295.1 21.5101 1293.78 19.8098 1291.91 18.5143C1290.04 17.2189 1287.86 16.5712 1285.36 16.5712C1283 16.5712 1280.85 17.1469 1278.9 18.2984C1276.98 19.4499 1275.44 20.9973 1274.29 22.9405C1273.14 24.8657 1272.56 27.0068 1272.56 29.3638C1272.56 31.7208 1273.14 33.8709 1274.29 35.8141C1275.44 37.7392 1276.98 39.2776 1278.9 40.4291C1280.85 41.5806 1283 42.1564 1285.36 42.1564C1287.86 42.1564 1290.01 41.5087 1291.81 40.2132C1293.62 38.9177 1294.91 37.2175 1295.66 35.1124H1299.15C1298.57 37.1095 1297.63 38.8818 1296.31 40.4291C1295.02 41.9765 1293.43 43.1909 1291.56 44.0726C1289.69 44.9542 1287.62 45.395 1285.36 45.395C1282.4 45.395 1279.71 44.6753 1277.29 43.2359C1274.86 41.7965 1272.92 39.8624 1271.48 37.4334C1270.04 35.0044 1269.32 32.3145 1269.32 29.3638ZM1284.76 57.8638C1280.84 57.8638 1277.15 57.1261 1273.7 55.6507C1270.26 54.1753 1267.23 52.1332 1264.6 49.5243C1261.99 46.8974 1259.94 43.8657 1258.45 40.4291C1256.97 36.9926 1256.24 33.3041 1256.26 29.3638C1256.28 25.4234 1257.03 21.735 1258.5 18.2984C1259.99 14.8619 1262.05 11.8391 1264.65 9.23025C1267.26 6.60335 1270.29 4.55222 1273.72 3.07684C1277.16 1.60146 1280.84 0.86377 1284.76 0.86377C1288.7 0.86377 1292.39 1.60146 1295.83 3.07684C1299.28 4.55222 1302.3 6.60335 1304.89 9.23025C1307.5 11.8391 1309.55 14.8619 1311.02 18.2984C1312.5 21.735 1313.24 25.4234 1313.26 29.3638C1313.28 33.3041 1312.55 36.9926 1311.08 40.4291C1309.6 43.8657 1307.56 46.8974 1304.95 49.5243C1302.34 52.1332 1299.31 54.1753 1295.85 55.6507C1292.4 57.1261 1288.7 57.8638 1284.76 57.8638ZM1284.76 54.6251C1288.25 54.6251 1291.53 53.9684 1294.59 52.655C1297.66 51.3415 1300.35 49.5333 1302.65 47.2302C1304.98 44.9272 1306.78 42.2463 1308.08 39.1876C1309.39 36.1289 1310.04 32.8543 1310.02 29.3638C1310 25.8732 1309.34 22.5986 1308.03 19.5399C1306.71 16.4812 1304.9 13.8003 1302.6 11.4973C1300.3 9.17627 1297.62 7.36803 1294.56 6.07258C1291.52 4.75913 1288.25 4.10241 1284.76 4.10241C1281.29 4.10241 1278.02 4.75913 1274.96 6.07258C1271.92 7.36803 1269.25 9.17627 1266.95 11.4973C1264.65 13.8183 1262.83 16.5082 1261.5 19.5669C1260.18 22.6256 1259.52 25.8912 1259.5 29.3638C1259.48 32.8363 1260.12 36.1019 1261.42 39.1606C1262.73 42.2014 1264.55 44.8822 1266.87 47.2033C1269.19 49.5243 1271.88 51.3415 1274.94 52.655C1278 53.9684 1281.27 54.6251 1284.76 54.6251Z" fill="#FAFF00"/>
</svg>
