<svg width="18" height="19" viewBox="0 0 18 19" fill="none" xmlns="http://www.w3.org/2000/svg">
<rect y="0.5" width="18" height="18" rx="4" fill="white"/>
<path d="M5.6598 14V4.54545H9.02983C9.76231 4.54545 10.3701 4.67164 10.8533 4.92401C11.3396 5.17637 11.7028 5.52569 11.9428 5.97195C12.1829 6.41513 12.3029 6.92756 12.3029 7.50923C12.3029 8.08783 12.1813 8.59718 11.9382 9.03729C11.6982 9.47431 11.335 9.81439 10.8487 10.0575C10.3655 10.3007 9.75769 10.4222 9.02521 10.4222H6.4723V9.19425H8.89595C9.3576 9.19425 9.73307 9.12808 10.0224 8.99574C10.3147 8.8634 10.5286 8.67105 10.6641 8.41868C10.7995 8.16631 10.8672 7.86316 10.8672 7.50923C10.8672 7.15222 10.7979 6.84292 10.6594 6.58132C10.524 6.31972 10.3101 6.11967 10.0178 5.98118C9.72846 5.83961 9.34837 5.76882 8.87749 5.76882H7.08629V14H5.6598ZM10.3271 9.73438L12.663 14H11.038L8.74822 9.73438H10.3271Z" fill="#0A0079"/>
</svg>
